<svg width="284" height="26" viewBox="0 0 284 26" fill="none" xmlns="http://www.w3.org/2000/svg">
<g clip-path="url(#clip0_42_13)">
<path d="M184.941 16.192C184.941 18.8036 183.123 20.4866 180.283 20.4866C179.772 20.4866 179.374 20.4286 179.09 20.3705L178.409 18.4554C178.636 18.5714 179.034 18.6295 179.545 18.6295C181.59 18.6295 182.328 17.6429 182.328 16.25C182.328 15.4955 182.101 15.0312 181.703 14.683C181.249 14.3348 180.624 14.2187 179.772 14.2187H177.841V23.4464C177.841 23.9107 178.011 24.2589 178.295 24.4911H174.887C175.171 24.2589 175.342 23.9107 175.342 23.4464V13.2321C175.342 12.7679 175.171 12.4196 174.887 12.1875H180.397C181.533 12.1875 182.385 12.3616 183.066 12.7679C184.259 13.4643 184.941 14.625 184.941 16.192Z" fill="white"/>
<path d="M198.005 22.1696L197.266 24.433H188.406C188.69 24.2009 188.86 23.8527 188.86 23.3884V13.2321C188.86 12.7679 188.69 12.4196 188.406 12.1875H196.926L197.607 14.3348C197.266 14.2188 196.528 14.1027 195.222 14.1027H191.416V17.2366H194.938C195.392 17.2366 196.244 17.2366 196.698 17.1205L196.017 19.1518C195.562 19.2098 194.994 19.2098 194.54 19.2098H191.416V22.5179H195.562C196.812 22.5179 197.664 22.2857 198.005 22.1696Z" fill="white"/>
<path d="M210.898 22.2857C211.978 23.7366 212.659 24.375 212.659 24.375C212.659 24.375 212.205 24.433 211.296 24.433C210.387 24.433 209.478 24.2589 208.57 23.0402L206.866 20.5446C206.525 20.0223 206.184 19.8482 205.048 19.8482H204.934V23.3304C204.934 23.7946 205.105 24.1429 205.389 24.375H201.981C202.265 24.1429 202.435 23.7946 202.435 23.3304V13.2321C202.435 12.7679 202.265 12.4196 201.981 12.1875H207.32C208.342 12.1875 209.194 12.3616 209.876 12.7679C211.012 13.4063 211.637 14.5089 211.637 16.0179C211.637 17.933 210.501 19.1518 208.854 19.6161C208.967 19.7321 209.138 19.9063 209.308 20.1384L210.898 22.2857ZM204.991 14.0446V17.9911C204.991 17.9911 205.73 18.0491 206.752 18.0491C208.286 18.0491 209.081 17.2946 209.081 16.0179C209.081 15.3795 208.91 14.9152 208.513 14.567C208.172 14.2188 207.604 14.0446 206.866 14.0446H204.991Z" fill="white"/>
<path d="M225.78 22.1696L225.042 24.433H216.181C216.465 24.2009 216.635 23.8527 216.635 23.3884V13.2321C216.635 12.7679 216.465 12.4196 216.181 12.1875H224.701L225.382 14.3348C225.042 14.2188 224.303 14.1027 222.997 14.1027H219.134V17.2366H222.656C223.11 17.2366 223.962 17.2366 224.417 17.1205L223.735 19.1518C223.281 19.2098 222.713 19.2098 222.258 19.2098H219.191V22.5179H223.338C224.587 22.5179 225.382 22.2857 225.78 22.1696Z" fill="white"/>
<path d="M238.219 22.1696L237.481 24.433H229.756C230.04 24.2009 230.21 23.8527 230.21 23.3884V13.2321C230.21 12.7679 230.04 12.4196 229.756 12.1875H233.164C232.88 12.4196 232.71 12.7679 232.71 13.2321V22.4598H235.72C237.026 22.5179 237.822 22.2857 238.219 22.1696Z" fill="white"/>
<path d="M252.646 23.5045C252.874 23.9688 252.987 24.2589 253.158 24.433H249.806C249.977 24.2009 250.034 23.8527 249.863 23.5045L249.238 21.9955H243.672L243.047 23.5045C242.877 23.9107 242.934 24.2589 242.934 24.433H240.207C240.434 24.0848 240.605 23.7946 240.718 23.5045L244.922 13.6384C245.035 13.3482 245.092 13 244.978 12.7098L244.808 12.1875H247.875L252.646 23.5045ZM244.467 20.0804H248.557L246.512 15.0893L244.467 20.0804Z" fill="white"/>
<path d="M267.642 18.3393C267.642 21.7054 265.37 24.433 261.45 24.433H256.282C256.566 24.2009 256.736 23.8527 256.736 23.3884V13.2321C256.736 12.7679 256.566 12.4196 256.282 12.1875H261.45C265.37 12.1875 267.642 14.9152 267.642 18.3393ZM261.28 22.5179C263.95 22.5179 265.086 20.5446 265.086 18.3393C265.086 16.1339 263.95 14.1607 261.28 14.1607H259.292V22.5179H261.28Z" fill="white"/>
<path d="M282.126 23.5044C282.353 23.9687 282.466 24.2589 282.637 24.433H279.286C279.456 24.2008 279.513 23.8526 279.342 23.5044L278.718 21.9955H273.094L272.47 23.5044C272.299 23.9107 272.356 24.2589 272.356 24.433H269.63C269.857 24.0848 270.027 23.7946 270.141 23.5044L274.344 13.6383C274.458 13.3482 274.514 12.9999 274.401 12.7098L274.174 12.2455H277.241L282.126 23.5044ZM273.946 20.0803H278.036L275.991 15.0892L273.946 20.0803Z" fill="white"/>
<path d="M99.8544 21.8795L99.3431 23.5626C98.6615 24.0268 97.3552 24.5492 95.5944 24.5492C91.6752 24.5492 89.2896 21.9376 89.2896 18.3393C89.2896 14.7411 91.6752 12.1295 95.4808 12.1295C97.4688 12.1295 98.2071 12.7099 99.0591 12.7679L99.5136 14.8572C98.6048 13.9286 97.1848 13.3483 95.5944 13.3483C92.6408 13.3483 90.88 15.3795 90.88 18.3393C90.88 21.2992 92.7544 23.3304 95.708 23.3304C97.3552 23.3304 98.8888 22.7501 99.8544 21.8795Z" fill="white"/>
<path d="M113.714 23.6205C113.884 24.0268 113.998 24.2589 114.168 24.433H112.01C112.123 24.2009 112.123 23.9688 112.01 23.6205L111.044 21.2991H104.91L103.944 23.6205C103.774 23.9688 103.83 24.2589 103.887 24.433H102.07C102.24 24.2009 102.41 23.9688 102.524 23.6205L107.068 13.1741C107.182 12.942 107.182 12.7679 107.125 12.5357L106.954 12.1875H108.772L113.714 23.6205ZM105.421 20.1384H110.533L107.977 14.1027L105.421 20.1384Z" fill="white"/>
<path d="M117.462 24.0268L116.838 21.4152C117.803 22.4599 119.564 23.4465 121.609 23.4465C123.597 23.4465 124.506 22.634 124.506 21.4152C124.506 20.2545 123.71 19.6161 121.552 19.0358L120.927 18.8617C118.371 18.1072 117.349 17.1206 117.349 15.3795C117.349 13.5804 118.826 12.1295 121.382 12.1295C123.37 12.1295 124.051 12.7679 124.96 12.5938L125.414 14.7411C124.676 13.9286 122.915 13.2322 121.495 13.2322C119.507 13.2322 118.826 14.2188 118.826 15.1474C118.826 16.192 119.45 16.7724 121.609 17.3527L122.234 17.5268C124.903 18.2813 125.982 19.3259 125.982 21.1831C125.982 23.2143 124.165 24.6072 121.666 24.6072C119.166 24.6072 118.542 23.7367 117.462 24.0268Z" fill="white"/>
<path d="M132.685 12.2455C132.514 12.4196 132.401 12.7098 132.401 12.9999V23.6205C132.401 23.9687 132.514 24.2008 132.685 24.3749H130.583C130.754 24.2008 130.867 23.9107 130.867 23.6205V12.9999C130.867 12.6517 130.754 12.4196 130.583 12.2455H132.685Z" fill="white"/>
<path d="M148.589 12.2455C148.418 12.4196 148.305 12.7098 148.305 12.9999V21.9955C148.305 23.4464 148.362 24.433 148.362 24.433C148.362 24.433 148.248 24.433 148.021 24.433C147.396 24.433 147.055 24.2008 146.317 23.2723L139.558 14.3928V23.6785C139.558 24.0267 139.671 24.2589 139.842 24.433H137.967C138.138 24.2589 138.251 23.9687 138.251 23.6785V13.3482C138.251 12.8258 138.024 12.3616 137.74 12.2455H139.785L146.942 21.7053V12.9999C146.942 12.6517 146.828 12.4196 146.658 12.2455H148.589Z" fill="white"/>
<path d="M165.913 18.3393C165.913 21.9955 163.3 24.7232 159.551 24.7232C155.802 24.7232 153.19 21.9955 153.19 18.3393C153.19 14.683 155.746 11.9553 159.551 11.9553C163.357 11.9553 165.913 14.683 165.913 18.3393ZM164.379 18.3393C164.379 15.3794 162.505 13.1741 159.608 13.1741C156.711 13.1741 154.837 15.3794 154.837 18.3393C154.837 21.2991 156.654 23.5044 159.608 23.5044C162.505 23.4464 164.379 21.2991 164.379 18.3393Z" fill="white"/>
<path d="M70.4321 22.2276L70.7161 22.2857C70.6025 22.2276 70.4889 22.2276 70.4321 22.2276ZM39.8737 19.4419H39.8169C39.8169 19.4419 39.8169 19.4419 39.8737 19.4419ZM39.7601 19.4419C39.7033 19.4419 39.6465 19.4419 39.6465 19.4419C39.7033 19.4419 39.7033 19.4419 39.7601 19.4419ZM36.6361 18.7455C36.6361 18.8035 36.6361 18.8035 36.6361 18.7455ZM83.2689 24.1428H83.3257C81.6785 24.8393 80.6561 24.7812 78.7817 24.7232C77.1345 24.6651 75.4873 24.6651 73.8401 24.6071C73.6129 24.6071 73.4425 24.6071 73.1585 24.6071C73.1585 24.6071 73.1585 24.6071 73.2153 24.6071C73.1585 24.6071 73.0449 24.6071 72.9313 24.6071C72.9313 24.6071 72.9313 24.6071 72.8745 24.6071C72.8177 24.6071 72.7609 24.6071 72.7041 24.6071C71.9657 24.6071 71.1705 24.6071 70.4321 24.5491H70.3753C70.3185 24.5491 70.3185 24.5491 70.3185 24.5491C70.2049 24.5491 70.0913 24.5491 70.0345 24.5491C69.8641 24.5491 69.6937 24.6071 69.4097 24.6071C69.5233 24.6071 69.5801 24.5491 69.5801 24.5491C68.5009 24.5491 67.4785 24.491 66.3993 24.491C66.2289 24.491 66.0585 24.491 65.8313 24.491C65.6041 24.491 65.3769 24.491 65.1497 24.491L64.9225 24.5491V24.491C64.8089 24.491 64.6953 24.491 64.5249 24.491C64.4681 24.491 64.4113 24.5491 64.2977 24.6071C63.9569 24.6071 64.2409 24.5491 64.1273 24.491C63.7865 24.491 63.3889 24.491 63.0481 24.491C62.6505 24.5491 62.2529 24.6071 61.7417 24.6071L61.9121 24.5491C61.7985 24.5491 61.7417 24.5491 61.5713 24.5491L61.5145 24.6071H61.4577C61.4009 24.6071 61.4009 24.6071 61.4009 24.6071C61.3441 24.6071 61.3441 24.6071 61.2873 24.5491C60.9465 24.5491 60.6057 24.6071 60.4353 24.6071L60.3785 24.6651C60.1513 24.6071 59.8105 24.6651 59.9241 24.6071C59.5833 24.7812 58.9017 24.6651 58.3337 24.7232C58.5041 24.7232 58.6177 24.6651 58.4473 24.6071C57.8793 24.6071 57.1409 24.6651 56.6865 24.5491C56.7433 24.491 56.8001 24.491 56.8569 24.491C56.8001 24.491 56.6865 24.491 56.6297 24.491C56.4593 24.5491 56.2889 24.6071 55.8345 24.6651V24.6071C55.3233 24.5491 54.8689 24.7812 54.6417 24.6071C55.0393 24.6071 54.9825 24.5491 55.1529 24.491C54.9257 24.5491 54.4145 24.5491 54.1873 24.5491C54.1305 24.5491 54.0737 24.491 53.9601 24.491C53.9033 24.491 53.8465 24.491 53.8465 24.491C53.7329 24.491 53.6761 24.433 53.6761 24.433C53.6193 24.433 53.6193 24.433 53.6193 24.375C53.5057 24.375 53.3921 24.375 53.3353 24.375H53.1649C53.1081 24.433 53.0513 24.491 52.8241 24.491L52.6537 24.375C52.5401 24.5491 51.9721 24.433 51.6881 24.5491V24.491C51.4609 24.5491 51.0633 24.491 50.8361 24.491C50.8361 24.433 50.6657 24.375 50.6089 24.2589C50.6089 24.3169 50.2681 24.3169 50.2113 24.375L50.1545 24.3169L49.7001 24.375C49.4161 24.3169 49.7569 24.2589 49.8705 24.2009C49.8137 24.2009 49.7569 24.2009 49.7001 24.2009C49.5297 24.2589 49.3025 24.3169 49.0753 24.375C49.3025 24.2009 48.3937 24.375 48.4505 24.2009C47.9393 24.2009 48.1665 24.433 47.5985 24.375L47.8257 24.2589C47.2577 24.375 46.7465 24.375 46.4057 24.433C46.1785 24.491 45.4401 24.375 45.2129 24.491C45.2129 24.433 45.6105 24.433 45.3265 24.375C45.2697 24.491 44.7017 24.433 44.7585 24.491C44.6449 24.433 44.3041 24.433 44.3609 24.375C44.1337 24.375 44.1905 24.433 44.2473 24.491C43.9633 24.375 43.8497 24.6071 43.6225 24.433C43.6225 24.433 43.7361 24.433 43.7929 24.433C43.7361 24.375 43.6793 24.3169 43.4521 24.3169L43.3953 24.491C42.8273 24.433 42.9977 24.491 42.3161 24.433C42.6001 24.375 42.2593 24.375 42.3729 24.3169C41.8617 24.375 42.2593 24.375 41.7481 24.433L41.9753 24.2589C41.4641 24.2589 41.8617 24.491 41.1801 24.433C41.3505 24.3169 40.9529 24.1428 41.2369 24.1428C41.0097 24.0268 40.1009 24.1428 40.2713 24.0268C39.4761 23.9687 39.4761 24.375 38.7945 24.2009L38.6241 24.3169C38.5673 24.375 38.4537 24.433 38.3401 24.433C38.3969 24.433 38.4537 24.375 38.4537 24.3169C38.2265 24.3169 38.1129 24.3169 37.9993 24.375C37.9425 24.375 37.9425 24.375 37.8857 24.375C37.7721 24.375 37.7153 24.433 37.6017 24.491C37.6585 24.433 37.8289 24.375 37.7721 24.3169C37.7721 24.3169 37.7721 24.3169 37.7153 24.3169C37.7153 24.3169 37.6585 24.3169 37.6017 24.3169C37.5449 24.2589 37.4313 24.3169 37.3177 24.3169C37.4313 24.375 37.4881 24.491 37.0905 24.491C37.0905 24.433 37.0905 24.433 37.0905 24.433C37.0905 24.491 37.0337 24.491 36.8633 24.5491C36.5225 24.5491 36.1249 24.6651 35.9545 24.5491L36.2953 24.6071L36.4657 24.491C36.4089 24.491 36.4089 24.491 36.3521 24.491C36.0681 24.5491 35.7841 24.6071 35.6137 24.6651C35.6705 24.6071 35.5001 24.5491 35.2729 24.5491C35.2729 24.5491 35.2729 24.5491 35.2161 24.5491H35.1593C35.2161 24.5491 35.2161 24.5491 35.2729 24.491C35.2729 24.491 35.2729 24.491 35.2161 24.433C34.9321 24.375 34.8753 24.375 34.8185 24.375C34.5913 24.375 34.3641 24.433 34.2505 24.491C34.2505 24.433 34.0233 24.375 34.0233 24.3169C33.8529 24.375 33.5689 24.375 33.5121 24.433L33.7393 24.491C33.2849 24.433 32.7169 24.6071 32.1489 24.6071V24.5491C31.7513 24.6071 31.4673 24.7232 31.0129 24.6651C31.2401 24.6071 31.0129 24.491 30.9561 24.433C30.8425 24.3169 31.5809 24.2009 31.2969 24.1428C31.2401 24.1428 31.1833 24.1428 31.1265 24.1428C30.8425 24.2589 30.6153 24.375 30.1609 24.3169C29.9905 24.433 30.3881 24.433 30.5585 24.433C30.1609 24.491 29.5361 24.375 29.3657 24.491C29.5361 24.491 29.5929 24.491 29.5929 24.5491C29.5929 24.5491 29.0817 24.7812 28.9113 24.7232C29.0249 24.6651 28.9113 24.6651 29.0249 24.6071C28.7977 24.5491 28.6841 24.6071 28.5137 24.6071C28.5137 24.433 29.0817 24.6071 29.0249 24.375C28.2297 24.3169 28.0593 24.491 27.3209 24.6071C26.9801 24.6071 26.7529 24.6071 26.4689 24.5491C26.5257 24.5491 26.6393 24.5491 26.5825 24.491C25.9577 24.375 26.1281 24.5491 25.6169 24.375C25.3329 24.491 24.6513 24.491 24.2537 24.433C24.3105 24.433 24.3105 24.375 24.3673 24.3169C23.5153 24.375 22.8337 24.491 21.9817 24.375C21.4705 24.375 21.0161 24.375 20.4481 24.375C20.5617 24.375 20.6185 24.3169 20.6185 24.3169C19.8801 24.2009 19.3121 24.375 18.5169 24.3169C18.2897 24.2589 17.8353 24.2589 17.9489 24.1428C17.3241 24.1428 18.1761 24.3169 17.5513 24.3169H17.6081C16.8129 24.433 16.1313 24.2589 15.3361 24.375C15.1657 24.3169 14.8817 24.2589 14.5409 24.2009C14.4273 24.2589 14.1433 24.3169 13.9161 24.375C13.7457 24.375 13.5753 24.3169 13.2913 24.3169C13.6321 24.433 13.0641 24.375 12.9505 24.433C13.1209 24.375 12.8937 24.3169 13.2345 24.2589C12.5529 24.1428 12.7801 24.491 12.0985 24.433L11.9849 24.3169C12.0985 24.3169 12.2689 24.3169 12.3825 24.3169C12.2689 24.3169 11.8145 24.2009 11.5873 24.3169C11.4737 24.375 12.1553 24.433 11.5873 24.491C11.6441 24.3169 11.1897 24.491 10.9057 24.3169C10.8489 24.375 10.6217 24.433 10.3377 24.433C10.2809 24.433 10.3377 24.375 10.3945 24.375C9.94008 24.3169 10.2241 24.491 9.82648 24.491C9.76968 24.433 10.0537 24.375 9.88328 24.3169C9.54248 24.2009 9.65608 24.375 9.31528 24.3169C9.42888 24.375 9.25848 24.491 9.03128 24.5491C9.03128 24.433 9.03128 24.3169 9.37208 24.3169C9.20168 24.2589 8.86088 24.2009 9.14488 24.0848C8.69048 24.2009 8.00888 24.2009 7.55448 24.3169C7.49768 24.2589 7.32728 24.2589 7.10008 24.2589C6.87288 24.3169 6.70248 24.5491 6.47528 24.491C6.36168 24.5491 6.53208 24.5491 6.53208 24.6071L6.13448 24.6651C5.90728 24.6071 6.41848 24.491 6.24808 24.433L5.90728 24.375C5.56648 24.433 5.85048 24.5491 5.96408 24.6071C5.62328 24.491 5.56648 24.7232 5.33928 24.6071C5.85048 24.5491 5.11208 24.375 5.73688 24.375L5.50968 24.3169C5.50968 24.2009 5.85048 24.2009 5.90728 24.1428C5.62328 24.3169 5.56648 24.375 5.16888 24.375C5.28248 24.2589 5.62328 24.375 5.79368 24.2589C5.33928 24.1428 4.99848 24.3169 4.88488 24.1428C5.11208 24.0848 5.45288 24.2589 5.56648 24.0848C5.45288 24.0268 5.33928 23.8526 4.94168 23.9107C4.77128 23.9687 5.05528 24.0268 5.28248 24.0268V23.9687V24.0848C5.05528 24.0268 4.77128 24.0848 4.54408 24.0848C4.48728 24.0848 4.43048 24.0268 4.43048 24.0268C4.37368 24.0268 4.37368 24.0268 4.37368 23.9687C4.14648 23.9687 3.80568 24.0848 3.57848 24.0268H3.97608C3.97608 23.9107 3.69208 23.9107 3.40808 23.8526H2.66968C2.55608 23.8526 2.49928 23.9107 2.44248 23.9687H2.66968C2.55608 24.0268 2.44248 24.0268 2.38568 24.0268C2.27208 24.0268 2.21528 23.9687 2.15848 24.0268C2.15848 24.0268 2.10168 24.0268 2.10168 24.0848C2.15848 24.0848 2.27208 24.0848 2.38568 24.0848C2.10168 24.1428 2.04488 24.2589 2.44248 24.3169C2.55608 24.2589 2.72648 24.2009 2.84008 24.2009C3.01048 24.2589 3.18088 24.2589 3.29448 24.2589C3.40808 24.2589 3.57848 24.2009 3.69208 24.2589C3.69208 24.3169 3.74888 24.3169 3.63528 24.375C3.57848 24.375 3.46488 24.375 3.40808 24.375C3.29448 24.375 3.23768 24.375 3.12408 24.375C2.89688 24.375 2.66968 24.375 2.55608 24.433C2.84008 24.3169 2.84008 24.375 2.78328 24.375C2.72648 24.433 2.66968 24.433 2.78328 24.433C1.98808 24.433 2.21528 24.6071 1.53368 24.6071C1.53368 24.5491 1.53368 24.433 1.53368 24.3169C1.59048 24.375 1.59048 24.433 1.64728 24.5491L1.76088 24.491C1.70408 24.491 1.70408 24.491 1.64728 24.491C1.64728 23.7366 1.47688 23.7946 1.42008 23.4464C1.42008 23.3303 1.42008 23.2723 1.47688 23.1562C1.47688 23.0982 1.47688 23.0401 1.53368 22.9821V22.9241V22.866C1.59048 22.75 1.59048 22.5759 1.59048 22.4018C1.70408 21.9375 1.47688 22.0535 1.47688 21.7053C1.59048 21.7634 1.64728 22.1116 1.64728 22.3437C1.70408 21.9955 1.47688 21.3571 1.70408 21.5893C1.70408 21.8794 1.70408 22.1696 1.76088 22.4018C1.81768 22.5178 1.81768 22.6339 1.87448 22.808C1.87448 22.866 1.87448 22.866 1.87448 22.9241V23.0982C1.87448 23.2143 1.87448 23.2723 1.93128 23.3884C1.87448 23.6785 1.93128 23.9687 1.87448 24.2009C1.98808 24.2009 2.10168 24.0848 2.15848 23.7946C2.10168 23.6205 2.04488 23.5625 2.04488 23.5044C1.98808 23.4464 1.98808 23.3303 1.98808 22.9821C1.98808 22.6339 1.93128 22.2276 1.93128 21.9375L1.81768 21.9955C1.76088 21.6473 1.76088 21.0089 1.70408 20.8928C1.70408 20.9509 1.70408 20.7768 1.70408 20.6607L1.81768 20.8928C1.87448 20.7768 1.87448 20.2544 1.98808 20.4285C1.98808 19.9062 1.87448 19.9062 1.93128 19.3839C1.93128 18.9776 1.59048 18.8035 1.64728 18.0491C1.70408 17.875 1.70408 18.5134 1.81768 18.2232C1.81768 17.5268 1.70408 17.3526 1.59048 17.1205C1.53368 17.3526 1.47688 17.1205 1.42008 17.1205V16.9464V16.6562C1.47688 16.7143 1.47688 16.7723 1.47688 16.8884C1.47688 16.9464 1.47688 17.0044 1.53368 17.0625C1.53368 17.0044 1.53368 17.0044 1.59048 16.9464V16.8884C1.59048 16.8303 1.59048 16.8303 1.59048 16.7723C1.59048 16.6562 1.59048 16.4821 1.59048 16.25L1.64728 16.4821C1.70408 16.25 1.59048 15.7276 1.70408 15.7857L1.59048 15.3214L1.81768 15.2634C2.21528 15.3214 2.38568 15.3214 2.55608 15.2634C2.72648 15.2634 2.89688 15.2053 3.18088 15.1473L2.66968 15.0893H3.01048C3.12408 15.0893 3.23768 15.0893 3.29448 15.0893C3.52168 15.0312 3.06728 14.9732 3.46488 14.9732C3.23768 15.0893 3.57848 15.0893 3.74888 15.1473C3.86248 15.1473 3.91928 15.1473 4.03288 15.0893H3.97608C4.03288 15.0893 4.08968 15.0893 4.14648 15.1473C4.77128 15.0312 5.39608 14.9151 6.07768 14.7991C6.30488 14.741 6.53208 14.741 6.75928 14.683C6.98648 14.625 7.21368 14.625 7.44088 14.625C7.66808 14.625 7.89528 14.5669 8.06568 14.5669C8.23608 14.5669 8.46328 14.5669 8.63368 14.5089C8.34968 14.5669 7.95208 14.625 8.00888 14.683C8.57688 14.625 9.14488 14.4509 9.94008 14.4509C9.88328 14.4509 9.88328 14.5089 9.82648 14.5089C10.3945 14.3928 11.1329 14.4509 11.9281 14.5669C12.0985 14.5669 12.3257 14.625 12.5529 14.625C12.7801 14.625 12.9505 14.683 13.1777 14.683C13.6321 14.741 14.0865 14.741 14.5409 14.741L14.6545 14.8571L14.0865 14.741C14.5977 14.9151 14.2001 14.8571 14.5977 14.9732C14.8249 14.9732 16.0177 15.0312 15.5633 14.9151H15.2793C15.8473 14.7991 17.4377 15.2053 18.0625 15.2053C18.4601 15.2634 18.9145 15.3214 19.3689 15.3794C20.0505 15.3214 20.7321 15.3214 21.5273 15.3794L21.8113 15.4955L22.0953 15.3214C22.2657 15.3214 22.3793 15.3794 22.5497 15.3794C22.7201 15.3794 22.8905 15.4375 23.0041 15.4375C23.2881 15.4955 23.5721 15.5535 23.8561 15.6696C24.4241 15.7857 24.9353 15.9598 25.5601 16.1339H25.6169C25.7305 16.1339 25.7873 16.1339 25.9009 16.1339C25.9577 16.1339 26.0145 16.1339 26.0145 16.1339H26.0713H26.1849C26.1849 16.1339 26.1849 16.1339 26.1849 16.1919C26.1849 16.25 26.1849 16.25 26.1849 16.308H26.2417H26.2985C26.3553 16.308 26.4121 16.308 26.4689 16.308C26.5825 16.308 26.6393 16.308 26.7529 16.308C26.9233 16.308 27.1505 16.308 27.3777 16.308C27.4345 16.366 27.1505 16.308 27.3209 16.4241L27.6049 16.4821C27.3777 16.4821 27.7185 16.5982 27.6617 16.5982C27.6049 16.5982 27.5481 16.5401 27.4913 16.5401C27.4913 16.5982 27.7753 16.6562 27.8889 16.7723C28.0025 16.7723 28.1161 16.7723 28.0025 16.7143C28.2297 16.8303 28.0025 16.7723 28.0025 16.8303C28.2865 16.9464 28.3433 16.8884 28.4001 16.8303C28.4001 16.7723 28.4001 16.7723 28.2297 16.6562C28.2865 16.7143 28.4001 16.7143 28.4569 16.7723L28.6273 16.8303C28.6841 16.8303 28.7409 16.8884 28.7977 16.9464C28.9113 17.0044 28.9681 17.0625 29.0249 17.1205C29.0817 17.1785 29.1385 17.2366 29.1385 17.2946L29.3089 17.3526V17.4107C29.3657 17.4107 29.3657 17.3526 29.3657 17.3526C29.4225 17.3526 29.4225 17.3526 29.4793 17.3526C29.5361 17.3526 29.5929 17.3526 29.6497 17.4107C29.7065 17.4107 29.7633 17.4107 29.8201 17.4687C29.9337 17.4687 30.0473 17.5268 30.1609 17.5848C30.3881 17.6428 30.6153 17.7589 30.8993 17.8169C31.4105 17.933 31.9217 18.1071 32.3761 18.1071C32.6601 18.1651 32.8873 18.2812 33.1713 18.3393C32.7169 18.3973 32.0921 18.1651 31.9217 18.2232H32.0921C32.1489 18.2812 31.8081 18.1651 31.7513 18.2232L31.9785 18.3393C32.3761 18.5134 32.2625 18.1651 32.5465 18.3973C32.0353 18.3393 32.7169 18.5134 32.3761 18.5714C32.4897 18.6875 32.7169 18.6294 32.8873 18.5714C32.7737 18.5714 32.6033 18.5134 32.5465 18.5134C32.6601 18.4553 33.1145 18.6294 33.1713 18.5134C33.2281 18.5134 33.2849 18.5714 33.3417 18.5714C33.4553 18.5714 33.5121 18.6294 33.5121 18.6875C33.5689 18.6875 33.5689 18.6875 33.6257 18.6875C33.6257 18.6294 33.9097 18.5714 34.1369 18.6294C34.1937 18.6294 33.9665 18.6875 33.9665 18.7455C34.0801 18.8035 34.1937 18.8616 34.3073 18.8616H34.4209H34.5345C34.5913 18.8616 34.5913 18.8616 34.6481 18.8616V18.8035C34.6481 18.8035 34.6481 18.8035 34.7049 18.8035H34.7617C34.5913 18.7455 34.4209 18.7455 34.4209 18.8035C34.3073 18.7455 34.3073 18.6875 34.3641 18.6875C34.4209 18.6875 34.4209 18.6294 34.4777 18.6294C34.5345 18.6294 34.6481 18.6294 34.7049 18.6294C34.6481 18.6875 34.7617 18.7455 34.9321 18.8035C34.9889 18.8035 35.1025 18.8616 35.1593 18.9196C35.2161 18.9196 35.2161 18.9776 35.2729 18.9776C35.2729 18.9776 35.2729 18.9776 35.3297 19.0357C35.3865 19.0937 35.3297 19.0357 35.2729 19.0357H35.2161H35.1593C35.2161 19.0357 35.2161 19.0357 35.2729 19.0937C35.2729 19.0937 35.2729 19.0937 35.3297 19.1518L35.2729 19.0937C35.1025 19.0937 34.9889 19.0937 34.8753 19.0357C34.8753 19.0357 34.9321 19.0357 34.9889 18.9776C34.9321 18.9776 34.9321 18.9776 34.8753 18.9776C34.8185 18.9776 34.8185 18.9776 34.7617 18.9776C34.7617 18.9776 34.7617 19.0357 34.7049 19.0357C34.7617 19.0357 34.7617 19.0357 34.8185 19.0357C34.8753 19.0357 34.9889 19.0937 35.1025 19.0937C35.1593 19.0937 35.2161 19.0937 35.2729 19.0937C35.3297 19.0937 35.3297 19.0937 35.3865 19.0937C35.4433 19.1518 35.5001 19.2098 35.6705 19.2678L35.6137 19.0937C36.0681 19.2678 36.0113 19.2098 36.2385 19.2678C36.2953 19.3259 36.4089 19.3839 36.5225 19.3839C36.5225 19.3839 36.5225 19.4419 36.5793 19.4419C36.5793 19.4419 36.5793 19.4419 36.5793 19.3839C36.5793 19.3839 36.5793 19.3839 36.5793 19.3259V19.2678C36.4089 19.2678 36.3521 19.2098 36.2953 19.2098L36.2385 19.1518C36.2953 19.1518 36.3521 19.1518 36.4089 19.1518C36.4657 19.1518 36.5793 19.1518 36.6361 19.1518C36.6361 19.2098 36.6361 19.2098 36.6361 19.2678C36.6361 19.2678 36.6361 19.2678 36.6361 19.2098V19.1518C36.6361 19.0937 36.6361 19.0937 36.6361 19.0357C36.6361 18.9776 36.6361 18.9776 36.6361 18.9196V18.9776C36.6929 18.8616 36.6361 18.9196 36.6361 18.9776C36.6929 19.0357 36.6929 19.0937 36.8065 19.0937C36.7497 19.0937 36.6929 19.0937 36.6361 19.0937V19.1518C36.6361 19.1518 36.6361 19.1518 36.6929 19.1518C36.7497 19.1518 36.8065 19.1518 36.8065 19.1518C36.8633 19.1518 36.9769 19.1518 37.0337 19.1518C37.0905 19.1518 37.0905 19.1518 37.1473 19.1518H37.2041H37.2609C37.2609 19.1518 37.2609 19.1518 37.3177 19.2098L37.3745 19.2678C37.4881 19.2678 37.6585 19.2098 37.6017 19.1518C37.7153 19.1518 37.8289 19.2098 37.9425 19.2678C37.9993 19.2678 38.0561 19.3259 38.1129 19.3259C38.1697 19.3259 38.1697 19.3259 38.2265 19.3259C38.2833 19.3259 38.2833 19.3259 38.3401 19.3259C38.4537 19.3839 38.3969 19.3839 38.3401 19.3839C38.2833 19.3839 38.2265 19.4419 38.3969 19.5C38.4537 19.5 38.4537 19.5 38.4537 19.5C38.5105 19.5 38.5105 19.4419 38.6809 19.4419C38.6809 19.4419 38.5673 19.5 38.6241 19.5C38.9081 19.558 38.7945 19.4419 39.1353 19.4419H39.0785C39.1353 19.4419 39.1353 19.4419 39.2489 19.4419C39.2489 19.4419 39.2489 19.4419 39.3057 19.4419H39.3625C39.4193 19.5 39.4761 19.558 39.5329 19.558H39.9305C40.0441 19.558 40.2713 19.558 40.4417 19.558C40.3849 19.558 40.2145 19.616 40.1009 19.616C39.9873 19.616 39.9873 19.6741 40.1009 19.7321C39.9873 19.7901 39.7601 19.7321 39.5897 19.6741C39.5329 19.6741 39.4761 19.616 39.4193 19.616H39.3625C39.3057 19.616 39.3057 19.616 39.2489 19.616C39.1353 19.616 39.0785 19.616 39.0785 19.6741H39.1921C39.4761 19.7321 39.1921 19.6741 39.5897 19.7901C39.7033 19.7901 39.7601 19.7901 39.8737 19.7901C39.9305 19.7901 39.9873 19.7901 40.0441 19.7901C40.1577 19.7901 40.3281 19.7901 40.4417 19.7901L40.4985 19.8482C40.4985 19.7901 40.4985 19.6741 40.4985 19.616C40.4417 19.616 40.4417 19.616 40.3849 19.558C40.3281 19.558 40.3281 19.558 40.2713 19.5L40.2145 19.4419H40.2713C40.3281 19.4419 40.3849 19.4419 40.4985 19.4419C40.4985 19.2098 40.5553 18.9776 40.4985 18.6875L40.5553 18.9196C40.3849 17.5848 40.4985 15.9598 40.4417 14.7991C40.6121 14.625 40.4985 15.1473 40.6689 15.3794C40.5553 15.2634 40.6121 15.6696 40.5553 15.7276L40.6689 16.1339C40.5553 16.1339 40.6121 16.0178 40.4985 15.9598C40.4417 16.25 40.6121 16.366 40.6689 16.4821C40.7257 16.9464 40.5553 17.2946 40.6689 17.5848L40.7257 17.5268C40.6689 17.8169 40.6121 18.2232 40.6689 18.5714C40.7257 18.5714 40.7825 18.8035 40.7825 18.9196C40.7825 18.7455 40.7257 18.8035 40.7257 18.7455C40.7825 18.9776 40.7825 19.3259 40.7825 19.616V19.0937C40.7825 16.0178 40.7825 12.5357 40.7825 11.2589C40.7825 10.9107 40.7257 10.5044 40.6689 10.1562C40.6689 10.0982 40.6121 10.0401 40.6121 9.98211C40.6121 10.0401 40.6121 10.0982 40.6121 10.1562C40.5553 10.0982 40.5553 10.0401 40.4985 9.92407H40.6121C40.6121 9.86604 40.6121 9.808 40.5553 9.74997C40.4417 9.69193 40.3281 9.51782 40.2713 9.45979C40.2145 9.28568 40.2145 9.22764 40.2145 9.16961C40.1009 9.05354 40.0441 8.93747 39.9305 8.87943C39.8737 8.82139 39.8169 8.76336 39.7033 8.70532C39.7601 8.70532 39.7601 8.70532 39.8169 8.70532C39.7601 8.64729 39.7033 8.58925 39.7033 8.53122L39.6465 8.47318C39.5897 8.35711 39.4761 8.24104 39.4761 8.06693L39.4193 8.00889C39.4193 8.00889 39.4193 8.06693 39.4761 8.06693V8.00889C39.4193 7.89282 39.3625 7.77675 39.4193 7.71872C39.4193 7.60264 39.3625 7.48657 39.3625 7.3705C39.3625 7.25443 39.3625 7.13836 39.3625 7.08032C39.3625 5.97764 39.3625 4.87497 39.4193 3.77229C39.4193 3.36604 39.7601 3.42407 40.0441 3.36604C40.3281 3.36604 40.4985 3.36604 40.4985 3.71425C40.3281 3.94639 40.3849 4.06247 40.6121 4.06247C40.8393 4.06247 40.8393 3.88836 40.8393 3.71425V3.65622C40.8393 3.42407 40.7257 3.13389 41.0097 2.95979C41.3505 2.72764 41.6913 2.72764 42.0889 2.72764C42.3729 2.72764 42.3729 2.95979 42.3729 3.19193C42.3729 3.308 42.3161 3.54014 42.5433 3.54014C42.7705 3.54014 43.0545 3.54014 43.1113 3.19193C43.1681 2.95979 43.1681 2.72764 43.1681 2.4955C43.1681 2.26336 43.2817 2.14729 43.5089 2.08925C43.9633 1.97318 44.3609 1.91514 44.8153 1.97318C44.8721 1.97318 44.8721 1.97318 44.9289 1.97318C44.9857 1.97318 44.9857 1.97318 45.0425 1.97318C45.0425 1.97318 45.0425 1.97318 45.0425 2.03122C45.1561 2.08925 45.2129 2.20532 45.2129 2.37943C45.2129 2.43747 45.2129 2.43747 45.2129 2.4955C45.2129 2.55354 45.2129 2.61157 45.2697 2.66961C45.3265 2.84372 45.4401 2.90175 45.6673 2.90175C45.7809 2.90175 45.8945 2.90175 45.9513 2.90175H46.0081C46.0649 2.90175 46.1217 2.84372 46.1785 2.72764C46.1785 2.66961 46.1785 2.55354 46.1785 2.4955V2.55354C46.1785 2.55354 46.1785 2.55354 46.2353 2.55354C46.2353 2.4955 46.2353 2.43747 46.2353 2.37943C46.2353 2.14729 46.2353 2.03122 46.2921 1.91514C46.2921 1.91514 46.2921 1.91514 46.2921 1.85711C46.3489 1.79907 46.4057 1.74104 46.5193 1.74104C46.6897 1.683 46.9169 1.683 47.0873 1.74104C47.2577 1.74104 47.3713 1.79907 47.5417 1.79907C47.7121 1.85711 47.8825 1.91514 47.8825 2.08925H47.8257C47.8257 2.14729 47.8825 2.20532 47.8825 2.32139C47.9393 2.32139 47.9961 2.37943 47.9961 2.61157C47.9961 2.66961 47.9961 2.78568 47.9961 2.84372C47.9961 2.90175 47.9961 3.01782 48.0529 3.01782C48.0529 3.07586 48.2233 3.07586 48.3369 3.07586C48.2801 3.07586 48.2801 3.13389 48.2233 3.13389C48.3369 3.13389 48.3937 3.07586 48.3937 2.95979C48.3937 2.90175 48.3937 2.84372 48.3937 2.78568C48.3937 2.72764 48.3937 2.66961 48.3937 2.61157C48.3937 2.43747 48.3937 2.20532 48.6209 2.14729C48.7345 2.08925 48.9049 2.14729 49.0185 2.08925C48.9049 2.03122 48.7345 2.03122 48.5641 2.08925C48.7913 2.03122 49.0185 2.08925 49.2457 2.14729C49.3593 2.20532 49.4729 2.26336 49.5297 2.37943C49.5865 2.43747 49.5865 2.4955 49.5865 2.4955C49.5865 2.55354 49.5865 2.55354 49.5865 2.61157C49.5865 2.72764 49.5865 2.90175 49.5865 3.01782C49.5865 3.07586 49.5865 3.13389 49.5865 3.19193C49.6433 3.24997 49.7001 3.24997 49.7569 3.19193C49.7569 3.308 49.7569 3.42407 49.7569 3.48211V3.42407C49.7569 3.42407 49.7569 3.24997 49.7569 3.19193V3.13389V3.07586C49.7569 3.07586 49.7569 3.07586 49.7569 3.01782C49.7569 2.95979 49.7569 2.90175 49.7569 2.84372C49.7569 2.78568 49.7569 2.72764 49.7569 2.78568C49.7569 2.72764 49.7569 2.72764 49.7569 2.66961C49.7569 2.61157 49.8137 2.55354 49.8137 2.55354C49.9841 2.78568 49.9841 2.84372 49.9841 2.90175C49.9841 2.90175 49.9273 2.95979 49.9273 3.01782C49.9273 2.95979 49.9841 2.90175 50.0977 2.90175C50.0977 2.90175 50.0977 2.90175 50.0409 2.84372C49.9841 2.78568 49.9273 2.78568 50.0977 2.66961C50.3817 2.66961 50.5521 2.78568 50.6657 2.90175C50.7225 2.95979 50.7793 3.01782 50.8361 3.13389C50.8929 3.24997 50.8929 3.36604 50.8929 3.42407C50.8361 3.48211 50.8361 3.48211 50.7793 3.48211C50.7793 3.36604 50.7793 3.24997 50.6657 3.13389C50.6089 3.07586 50.5521 3.01782 50.5521 2.95979C50.4385 2.90175 50.3817 2.90175 50.3249 2.95979C50.4953 3.01782 50.6657 3.19193 50.6657 3.42407C50.6657 3.42407 50.7225 3.42407 50.7793 3.54014C50.7225 3.54014 50.7225 3.65622 50.7225 3.71425C50.7225 3.77229 50.7225 3.83032 50.7225 3.88836C50.7225 3.94639 50.7225 3.94639 50.7793 4.00443L50.8361 3.77229C50.8929 3.88836 50.8361 4.06247 50.8929 4.17854C50.7793 4.06247 50.7225 4.06247 50.6657 4.06247C50.6657 4.46872 50.6657 4.81693 50.6657 5.22318V5.28122C50.6657 5.33925 50.6657 5.39729 50.6657 5.45532C50.6657 5.45532 50.6657 5.45532 50.6657 5.51336L50.7225 5.45532H50.7793V5.57139C50.7793 5.80354 50.7225 6.09372 50.7225 6.32586C50.7225 6.61604 50.8361 6.90622 50.7793 7.19639C50.7225 7.83479 50.4953 8.35711 50.2681 8.82139C50.2113 8.82139 50.0977 8.87943 50.0409 8.87943C50.0409 9.05354 50.2113 8.87943 50.0409 9.11157C50.0409 9.05354 49.9273 9.11157 49.8705 9.16961C49.8137 9.22764 49.8137 9.28568 49.7569 9.34372C49.8137 9.34372 50.0409 9.05354 49.8705 9.40175C49.8137 9.40175 49.7569 9.40175 49.7569 9.40175C49.7569 9.40175 49.7569 9.40175 49.7569 9.45979C49.7569 9.63389 49.5297 9.86604 49.6433 9.98211C49.4729 10.2723 49.4161 10.6785 49.4161 11.0848C49.4161 11.491 49.4161 11.8393 49.4729 12.1294C49.4161 12.3616 49.3593 12.3035 49.3025 12.2455C49.3025 12.4196 49.3025 12.5937 49.3025 12.7678C49.3025 12.8259 49.3025 12.8839 49.3025 12.8839C49.4161 12.8839 49.5297 12.9419 49.6433 12.9419C49.7001 12.9419 49.7569 12.9419 49.8137 12.9419C49.9841 12.9419 50.0977 13 50.2681 13C50.3249 13 50.3817 13 50.4385 13C50.6657 13.058 50.8929 13.058 51.1201 13.116C51.2905 13.116 51.4041 13.116 51.5745 13.116H51.5177C51.5177 13.116 51.5177 13.116 51.5177 13.1741C51.6881 13.2321 51.9153 13.2321 52.0857 13.2901H52.1425C52.2561 13.2901 52.3129 13.3482 52.4265 13.3482C52.7105 13.3482 53.0513 13.4062 53.3921 13.4643C53.1649 13.3482 52.9377 13.2321 52.8241 13.058C52.8809 13.116 52.9377 13.116 52.9377 13.116C52.8809 13.058 52.7673 13 52.7105 12.9419C52.6537 12.9419 52.6537 12.8839 52.5969 12.8839C52.4265 12.7678 52.3129 12.7098 52.1425 12.5937L52.0857 12.5357C51.9721 12.4776 51.8585 12.3616 51.8017 12.4196C51.8585 12.5357 51.9721 12.5937 52.0857 12.6518C51.9153 12.5357 51.7449 12.3616 51.6313 12.1875C51.5177 12.0134 51.4609 11.7232 51.4609 11.491C51.4609 11.0848 51.4609 10.6785 51.5177 10.3303L51.6313 10.5625C51.6313 10.5625 51.6313 10.5625 51.6881 10.5625C51.6881 10.4464 51.6881 10.3303 51.6881 10.2143C51.6313 10.1562 51.5745 9.92407 51.5177 10.2143C51.5177 10.0982 51.4609 10.0401 51.5177 9.92407C51.5745 9.808 51.6313 9.86604 51.6881 9.98211C51.6881 9.92407 51.6881 9.86604 51.6881 9.808C51.6881 9.808 51.6881 9.808 51.6313 9.808C51.5745 9.808 51.5177 9.86604 51.4609 9.69193C51.5177 9.45979 51.5177 9.28568 51.5177 9.11157C51.5745 8.9955 51.5745 8.82139 51.7449 8.70532C51.6881 8.76336 51.7449 8.82139 51.7449 8.82139C51.5177 8.87943 51.5745 9.28568 51.5177 9.22764C51.5177 9.34372 51.5745 9.40175 51.5745 9.45979C51.5745 9.40175 51.5745 9.34372 51.5745 9.28568C51.5745 9.16961 51.5745 9.11157 51.6313 8.9955C51.6313 8.93747 51.6881 8.93747 51.6881 8.93747C51.6313 8.87943 51.6881 8.87943 51.7449 8.76336C51.8017 8.76336 51.8585 8.82139 51.9153 8.82139C51.9721 8.82139 52.0289 8.82139 52.0289 8.87943H52.0857C52.0289 8.82139 51.9721 8.76336 51.8585 8.70532C52.0289 8.64729 52.0857 8.82139 52.1425 8.87943C52.0857 8.87943 52.0857 8.93747 52.0857 8.9955C52.1425 9.11157 52.0857 9.28568 52.2561 9.34372C52.4265 9.22764 52.3129 9.05354 52.3129 8.93747C52.3129 8.76336 52.3697 8.64729 52.4265 8.58925L52.3697 8.53122C52.4265 8.41514 52.5969 8.41514 52.7105 8.41514C52.7673 8.41514 52.8241 8.41514 52.8809 8.47318C52.9377 8.53122 52.9377 8.58925 52.9377 8.64729C52.9377 8.76336 52.9377 8.87943 53.0513 9.05354C53.0513 9.11157 53.0513 9.11157 53.1081 9.11157H53.1649C53.2217 9.11157 53.2785 9.11157 53.2785 9.05354C53.3353 8.9955 53.2785 8.82139 53.2785 8.70532C53.2785 8.58925 53.2785 8.41514 53.3353 8.29907C53.3921 8.12497 53.5057 8.00889 53.6761 8.00889C53.8465 7.95086 53.9601 7.95086 54.0737 7.95086C54.1305 8.00889 54.1873 8.06693 54.2441 8.12497C54.3009 8.12497 54.3009 8.06693 54.3009 8.06693C54.3009 8.06693 54.4145 8.12497 54.4145 8.183C54.4145 8.183 54.3577 8.24104 54.3577 8.29907C54.3577 8.35711 54.3577 8.35711 54.3577 8.41514C54.3577 8.41514 54.3577 8.41514 54.3577 8.47318C54.3577 8.53122 54.3577 8.53122 54.3577 8.58925C54.3577 8.53122 54.4145 8.47318 54.4145 8.41514C54.4145 8.35711 54.4713 8.29907 54.4713 8.41514C54.4145 8.47318 54.4145 8.58925 54.3577 8.64729C54.4145 8.64729 54.4145 8.70532 54.5281 8.76336C54.5849 8.82139 54.6985 8.82139 54.7553 8.64729C54.8689 8.64729 55.0393 8.64729 55.0961 8.53122C55.1529 8.41514 55.0961 8.24104 55.1529 8.12497C55.2665 7.77675 55.6073 7.54461 55.8913 7.48657C56.0617 7.48657 56.0617 7.54461 56.0617 7.60264C56.1753 7.60264 56.2889 7.60264 56.4025 7.66068C56.4593 7.66068 56.4593 7.71872 56.4593 7.71872C56.5161 7.71872 56.5729 7.83479 56.6297 7.89282C56.6297 7.95086 56.6865 8.00889 56.6865 8.12497C56.6865 8.183 56.6865 8.24104 56.7433 8.29907C56.8001 8.35711 56.8569 8.35711 56.9137 8.35711C57.0273 8.35711 57.2545 8.35711 57.3681 8.24104C57.4249 8.183 57.4249 8.12497 57.4249 8.00889C57.4249 7.89282 57.4249 7.83479 57.4817 7.71872C57.4817 7.71872 57.4817 7.77675 57.5385 7.77675C57.5953 7.66068 57.6521 7.60264 57.7657 7.60264C57.8225 7.54461 57.9361 7.48657 58.0497 7.48657L57.9929 7.60264C58.1065 7.54461 58.2201 7.54461 58.3905 7.54461C58.5609 7.54461 58.7313 7.77675 58.7313 7.89282C58.6745 7.77675 58.6177 7.77675 58.5041 7.71872C58.5609 7.77675 58.6177 7.89282 58.6177 8.00889C58.6177 8.183 58.6177 8.29907 58.6745 8.41514C58.6745 8.47318 58.7313 8.53122 58.7313 8.58925C58.7313 8.58925 58.7313 8.64729 58.7313 8.70532C58.7313 8.64729 58.7313 8.64729 58.7313 8.58925C58.7881 8.58925 58.9017 8.64729 59.0153 8.64729C59.0721 8.64729 59.1289 8.58925 59.1289 8.53122C59.1289 8.47318 59.1289 8.41514 59.1289 8.35711C59.1289 8.24104 59.1857 8.12497 59.2425 8.06693V8.183H59.2993C59.3561 8.183 59.3561 8.12497 59.4129 8.12497C59.4697 8.06693 59.5833 8.06693 59.6401 8.06693C59.8105 8.06693 60.0377 8.12497 60.0945 8.35711C60.1513 8.53122 59.9809 8.24104 60.0377 8.47318C60.1513 8.64729 60.0945 8.87943 60.1513 9.11157C60.1513 9.34372 60.1513 9.51782 60.1513 9.69193C60.0945 9.63389 60.0945 9.57586 60.0377 9.51782C60.0377 9.57586 60.0377 9.63389 60.0377 9.69193C60.0945 9.86604 60.0377 10.0982 60.2081 10.1562C60.1513 10.2723 60.0945 10.3303 60.0377 10.3884C60.0377 10.5044 60.0377 10.6205 60.0377 10.7366C60.0945 10.7946 60.1513 10.6205 60.1513 10.9687C59.9809 11.1428 60.2081 11.2009 60.1513 11.433C60.1513 11.375 60.1513 11.3169 60.0945 11.3169C60.0377 11.7812 60.1513 11.375 60.0377 11.7812C60.2081 11.8393 60.1513 12.0714 60.0945 12.2455C60.0377 12.4776 59.8673 12.6518 59.9241 12.7678C59.8673 12.6518 59.6401 13.058 59.6969 12.8839C59.5265 13.1741 59.3561 13.3482 59.3561 13.5803C59.1857 13.6964 59.1857 13.9866 59.2425 14.2187C59.2993 14.4509 59.2993 14.625 59.0721 14.683C59.0721 14.8571 59.2425 14.9732 59.2425 15.2053C59.1857 15.1473 59.1289 15.1473 59.1289 15.2634C59.0721 15.4955 59.2993 15.6696 59.2993 15.9598C59.2425 16.1919 59.0721 16.1339 59.1857 16.4241L59.2425 16.4821C59.1857 16.7143 59.0721 16.4821 59.0153 16.308C59.0153 16.4821 59.0153 16.6562 59.0153 16.8303C59.0153 16.7723 59.0153 16.7143 59.0153 16.6562C59.0153 16.8303 59.0721 16.6562 59.1289 16.7143C59.3561 17.0625 59.1857 17.2946 59.2425 17.7589C59.2425 17.7589 59.1857 17.6428 59.1289 17.7589C59.1289 17.933 59.2425 18.1071 59.1857 18.1651C59.1857 18.1071 59.1857 17.991 59.1289 17.991C59.0721 18.2232 59.0721 18.3393 59.1289 18.5134L59.1857 18.4553C59.1857 18.5134 59.1289 18.5714 59.1289 18.6294L59.1857 18.5714C59.0153 18.8616 59.2993 19.1518 59.2425 19.4419L59.0721 19.3839C59.3561 19.9062 59.0721 20.1384 59.1857 20.7187L59.1289 20.5446C59.1857 20.8348 59.1857 21.183 59.1857 21.4732L59.9241 21.5312C60.2081 21.4732 61.2305 21.5312 61.7417 21.5893C61.4577 21.5893 62.2529 21.6473 62.8777 21.7053C62.7641 21.7053 64.2409 21.8214 64.8657 21.8214H64.8089C65.2065 21.8794 65.7745 21.8794 66.2289 21.8794C66.6833 21.8794 67.1377 21.9375 67.2513 21.9955C67.8761 22.0535 68.2737 22.0535 68.6713 21.9955L69.6369 22.1116H69.4665C69.4097 22.2276 70.4321 22.1696 70.9433 22.2276L70.6025 22.1696C70.7729 22.1696 71.0569 22.1696 71.2273 22.1116L71.0569 22.1696C71.3977 22.1696 71.6249 22.1696 71.8521 22.1116C71.7385 22.1696 72.3633 22.1696 72.8177 22.2276C72.4769 22.2276 72.8745 22.2276 72.8745 22.2276C72.9313 22.2276 73.3289 22.2276 73.8969 22.2857C74.3513 22.2857 74.8057 22.3437 75.3169 22.3437C75.4305 22.3437 75.6009 22.3437 75.7145 22.3437C75.8281 22.3437 75.9985 22.3437 76.1121 22.3437C76.2257 22.3437 76.3961 22.3437 76.5097 22.3437C76.6233 22.3437 76.7937 22.3437 76.9073 22.3437C77.1913 22.3437 77.4753 22.3437 77.5889 22.3437C77.7025 22.3437 77.8161 22.4018 77.9865 22.4018C78.1569 22.4018 78.2705 22.4598 78.4409 22.4598C78.6113 22.4598 78.7817 22.5178 78.9521 22.5178C79.1225 22.5178 79.2929 22.5759 79.5201 22.5759C79.6905 22.5759 79.8609 22.6339 80.0313 22.6339C80.2017 22.6339 80.3721 22.6919 80.4857 22.6919C80.5425 22.6919 80.5993 22.6919 80.6561 22.75C80.7129 22.75 80.7697 22.75 80.8265 22.75C80.9401 22.75 80.9969 22.75 80.9969 22.808C80.5993 22.75 80.3721 22.75 80.2585 22.75C80.0881 22.75 80.0313 22.75 79.8609 22.75C80.2585 22.808 80.5425 22.866 80.7697 22.9241C80.8265 22.9241 80.9401 22.9241 80.9969 22.9821C81.0537 22.9821 81.1673 22.9821 81.2241 23.0401C81.3945 23.0401 81.5649 23.0982 81.8489 23.0982C82.0193 23.1562 81.8489 23.1562 81.6217 23.1562C81.3945 23.1562 81.1105 23.0982 81.0537 23.1562C81.1105 23.1562 81.1673 23.1562 81.2241 23.2143C81.2809 23.2143 81.3377 23.2143 81.3377 23.2143C81.3945 23.2143 81.4513 23.2143 81.5081 23.2723C81.6217 23.2723 81.6785 23.2723 81.7353 23.2723C81.7921 23.2723 81.8489 23.2723 81.9625 23.2723C82.0193 23.2723 82.0193 23.2723 82.0761 23.2723H82.1329H82.1897C82.2465 23.2723 82.2465 23.3303 82.3033 23.3303C82.3601 23.3303 82.3601 23.3884 82.4169 23.3884L82.5305 23.4464L82.6441 23.5044L82.7577 23.5625C82.8145 23.5625 82.8145 23.6205 82.8713 23.6205C82.9281 23.6785 82.9849 23.6785 83.0417 23.7366C83.0985 23.7366 83.0985 23.7946 83.1553 23.8526H83.2121C83.3257 24.0268 83.2689 24.0848 83.2689 24.1428ZM59.9241 12.3035C59.9809 12.2455 59.9809 12.1875 60.0377 12.0714V12.0134C59.9809 12.0714 59.9809 12.1875 59.9241 12.3035ZM59.0153 14.1607H59.0721C59.0721 13.8705 59.1857 13.6964 59.2993 13.4643C59.3561 13.3482 59.2425 13.4062 59.2425 13.2901C59.1857 13.4062 59.1289 13.5223 59.0721 13.6964C59.0721 13.8705 59.0721 13.9866 59.0153 14.1607ZM51.2905 11.3169C51.2905 11.2589 51.2905 11.1428 51.2905 11.0848C51.2905 11.0848 51.2905 11.2009 51.2905 11.3169ZM51.3473 11.8973C51.3473 11.8393 51.3473 11.8393 51.3473 11.7812C51.3473 11.7812 51.3473 11.7812 51.2905 11.7812C51.2905 11.8393 51.3473 11.8973 51.3473 11.8973ZM53.1649 9.34372C53.1081 9.34372 53.0513 9.34372 52.9945 9.34372C52.9945 9.34372 52.9945 9.34372 52.9945 9.40175C53.0513 9.40175 53.1081 9.34372 53.1649 9.34372ZM50.7225 7.13836C50.7225 7.08032 50.7225 7.02229 50.7793 6.96425C50.7793 6.96425 50.7793 6.96425 50.7225 6.96425C50.7225 7.02229 50.7225 7.08032 50.7225 7.13836ZM49.5297 3.36604C49.5297 3.42407 49.5297 3.48211 49.5297 3.54014C49.5297 3.59818 49.5297 3.59818 49.5297 3.65622C49.5297 3.54014 49.5297 3.42407 49.5297 3.36604ZM49.4729 2.66961C49.4729 2.72764 49.4729 2.72764 49.5297 2.78568C49.5297 2.78568 49.5297 2.78568 49.5865 2.78568C49.5297 2.78568 49.4729 2.72764 49.4729 2.66961ZM35.0457 18.6875C35.1025 18.6875 35.1025 18.6875 35.0457 18.6875ZM11.8145 14.741C11.2465 14.683 11.0193 14.683 10.7921 14.683C10.6785 14.683 10.5649 14.683 10.4513 14.683C10.3377 14.683 10.1673 14.683 9.94008 14.683C9.54248 14.741 9.65608 14.741 9.88328 14.741C10.1105 14.741 10.4513 14.741 10.6785 14.7991C10.6217 14.7991 10.5649 14.7991 10.5081 14.7991H11.0193H11.0761C11.2465 14.7991 11.5305 14.741 11.8145 14.741ZM25.5033 16.1339C25.3897 16.1339 25.2193 16.0759 25.1625 16.0759C25.2761 16.0759 25.3329 16.1339 25.4465 16.1339H25.5033ZM26.1849 16.25V16.1339C26.1849 16.1339 26.1849 16.1339 26.1849 16.1919C26.1849 16.1919 26.1849 16.25 26.1849 16.25ZM35.7841 24.3169C35.5569 24.3169 35.3865 24.3169 35.2729 24.375C35.3865 24.375 35.5001 24.375 35.7841 24.3169C35.7273 24.375 35.7273 24.375 35.7841 24.3169ZM36.5225 19.2098C36.4657 19.2098 36.4657 19.2098 36.5225 19.2098ZM36.5793 19.0937V19.0357C36.5793 19.0357 36.5793 19.0357 36.5225 19.0357L36.5793 19.0937C36.5225 19.0357 36.5225 19.0357 36.5225 19.0357C36.5793 19.0357 36.5793 19.0357 36.5793 19.0937ZM37.2609 19.2678C37.2041 19.2098 37.2041 19.2098 37.2041 19.2098H37.1473H37.0905H36.9769L36.8065 19.1518C36.8633 19.2098 36.7497 19.2678 36.6361 19.3259C36.7497 19.3259 36.8633 19.3839 36.9769 19.3839C36.9769 19.3839 36.9769 19.3839 36.9769 19.3259H37.0337H37.0905H37.1473C37.2041 19.2678 37.2609 19.2678 37.2609 19.2678ZM59.1289 21.5312C59.1289 21.3571 59.1289 21.183 59.1289 21.0089C59.1289 21.0089 59.0721 21.0089 59.0721 20.9509V21.5312H59.1289ZM59.0721 20.6026V20.8348C59.0721 20.8348 59.1289 20.8348 59.1289 20.8928C59.0721 20.7768 59.0721 20.7187 59.0721 20.6026ZM59.1289 19.4419C59.0721 19.3839 59.0721 19.3839 59.1289 19.4419L59.0721 19.558C59.0721 19.5 59.0721 19.4419 59.1289 19.4419ZM59.0153 17.7009C59.0721 17.7589 59.0721 17.875 59.1857 17.991C59.0721 17.6428 59.3561 17.7009 59.1289 17.4687V17.5268C59.0721 17.3526 59.0153 17.1785 59.0153 17.0044C59.0153 17.2366 59.0153 17.4687 59.0153 17.7009ZM59.0153 18.9776H59.0721V19.2678C59.1289 19.2098 59.1289 19.2098 59.1289 19.0937L59.0721 18.8616C59.1289 18.9196 59.1289 19.1518 59.1857 19.0937C59.2425 18.9196 59.0721 18.8616 59.1857 18.8035C59.1289 18.7455 59.0153 18.7455 59.0153 18.6294V18.6875C59.0153 18.7455 59.0153 18.8616 59.0153 18.9776ZM56.9705 8.47318C57.0273 8.47318 57.0273 8.47318 56.9705 8.47318C57.0841 8.47318 57.1409 8.47318 57.1977 8.47318H57.1409C57.1409 8.41514 57.0841 8.41514 56.9705 8.47318ZM53.3921 13.6964C53.4489 13.6964 53.4489 13.6964 53.5057 13.6964C53.5057 13.6964 53.5057 13.6384 53.5625 13.6384C53.5625 13.6384 53.5625 13.6384 53.5057 13.6384C53.5057 13.6384 53.4489 13.6384 53.3921 13.6964ZM40.6121 19.616C40.6121 19.7321 40.6121 19.7901 40.6121 19.9062C40.6121 19.9062 40.6121 19.9062 40.6689 19.9062L40.6121 19.616ZM81.9057 24.1428C81.1105 24.1428 80.2585 24.0848 79.4633 24.0848C78.5545 24.0848 77.5889 24.0268 76.7937 23.9687C76.8505 23.9687 76.7937 23.9687 76.7369 23.9107C76.6801 23.9107 76.5665 23.8526 76.5665 23.8526C76.3393 23.8526 76.1689 23.8526 75.9985 23.8526C75.8281 23.8526 75.7145 23.8526 75.5441 23.8526C75.2601 23.8526 74.9193 23.8526 74.5217 23.7946C74.6921 23.7946 75.0329 23.7946 74.8625 23.7366C74.6921 23.7946 74.0673 23.7946 73.3289 23.7946C73.1585 23.7946 72.9881 23.7946 72.8177 23.7946H72.4201C72.1929 23.7946 71.9657 23.7946 71.9089 23.8526L71.8521 23.7946C71.5681 23.7946 71.2841 23.7946 71.0569 23.8526C70.9433 23.8526 70.7729 23.9107 70.6593 23.9107C70.6025 23.9107 70.5457 23.9107 70.4889 23.9687C70.4321 23.9687 70.3185 24.0268 70.2617 24.0268C70.0345 24.0848 69.8073 24.0848 69.5801 24.0848C69.6369 24.0848 69.6369 24.0848 69.6937 24.0848L81.9057 24.1428ZM60.5489 24.6651C60.5489 24.6651 60.4921 24.6651 60.4353 24.6071C60.4353 24.6651 60.4921 24.6651 60.5489 24.6651ZM50.5521 24.6651C50.7225 24.6071 50.8361 24.6071 50.8361 24.5491C50.6657 24.5491 50.6089 24.6071 50.5521 24.6651ZM46.4057 24.5491H46.3489C46.4057 24.5491 46.4057 24.5491 46.4057 24.5491ZM37.6585 24.491C37.8289 24.433 38.0561 24.433 38.2833 24.433C38.0561 24.433 37.7721 24.375 37.6585 24.491ZM60.8329 24.6651C60.9465 24.6071 61.0601 24.6071 61.1737 24.6071C61.0601 24.5491 60.7193 24.6071 60.8329 24.6651ZM53.3921 24.491L53.5625 24.433H53.4489L53.3921 24.491ZM2.84008 24.0848C2.78328 24.1428 2.78328 24.1428 2.84008 24.0848ZM36.9769 18.9776C36.8633 18.9776 36.8065 18.9196 36.7497 18.9776C36.8065 19.0357 36.8633 19.0357 36.9769 18.9776ZM28.2865 24.7232C28.1729 24.7232 28.1161 24.6651 27.9457 24.6651C27.6617 24.7812 28.5137 24.6651 28.1161 24.7812C28.2297 24.7812 28.3433 24.7812 28.4001 24.7232L28.2297 24.6071C28.0025 24.6651 28.4001 24.6651 28.2865 24.7232ZM4.43048 24.375C4.43048 24.433 4.37368 24.433 4.60088 24.491C4.77128 24.433 4.48728 24.2589 4.82808 24.2009C4.77128 24.2009 4.65768 24.2009 4.60088 24.2009C4.71448 24.2009 4.60088 24.2589 4.43048 24.375ZM4.60088 24.1428C4.54408 24.0848 4.54408 24.0848 4.60088 24.1428C4.48728 24.0848 4.48728 24.0848 4.43048 24.0848C4.43048 24.0848 4.48728 24.1428 4.60088 24.1428ZM24.1401 24.6651C24.0833 24.6651 24.0265 24.6651 24.0265 24.6651C24.0833 24.6651 24.1401 24.6651 24.1401 24.6651ZM1.93128 23.1562C1.93128 23.0982 1.93128 23.0401 1.93128 22.9821C1.93128 22.9241 1.93128 22.9241 1.93128 22.866V23.1562ZM3.40808 24.0848H2.55608H2.84008C2.95368 24.0268 3.35128 24.1428 3.40808 24.0848ZM39.1921 19.616C39.1353 19.6741 39.1353 19.6741 39.1921 19.616ZM1.64728 22.2276C1.64728 22.1696 1.64728 22.1696 1.64728 22.1116C1.59048 22.1696 1.64728 22.2276 1.64728 22.2276ZM36.5793 18.8616C36.5793 18.9196 36.5793 18.9196 36.5793 18.8616ZM35.5001 18.4553C35.3865 18.5714 35.1025 18.3393 34.9889 18.4553C35.1025 18.3973 35.4433 18.5714 35.5001 18.4553ZM34.3073 18.2232C33.9665 18.1651 33.5689 18.1651 33.3985 18.1651L33.5121 18.2232C33.7961 18.2232 34.1369 18.3393 34.3073 18.2232ZM27.6617 16.4241C27.6049 16.4821 27.8889 16.5982 27.7753 16.5401C27.8321 16.4821 27.4345 16.308 27.6617 16.4241ZM1.53368 15.2634V15.2053C1.87448 15.2053 1.64728 15.1473 1.87448 15.1473C1.64728 15.1473 1.47688 15.1473 1.42008 15.1473C1.47688 15.2634 1.47688 15.3214 1.53368 15.2634ZM1.53368 15.7857L1.47688 16.0178C1.47688 15.9018 1.53368 15.8437 1.53368 15.7857ZM1.42008 17.7009C1.42008 17.7009 1.42008 17.6428 1.36328 17.6428C1.42008 17.7009 1.42008 17.7589 1.42008 17.7009ZM1.42008 17.5848C1.42008 17.5268 1.42008 17.5268 1.42008 17.4687H1.36328C1.36328 17.4687 1.36328 17.5268 1.42008 17.5848ZM1.53368 17.875C1.47688 17.5848 1.47688 18.2232 1.36328 17.933L1.42008 18.1651L1.53368 17.875ZM1.47688 19.0937C1.42008 19.3259 1.64728 19.7321 1.47688 19.8482C1.53368 20.6026 1.70408 19.6741 1.76088 20.4866C1.81768 19.6741 1.47688 20.0803 1.53368 19.3839C1.47688 19.7321 1.47688 19.2098 1.47688 19.0937ZM1.70408 18.9196C1.64728 18.8616 1.64728 19.2098 1.64728 19.3259C1.70408 19.2098 1.76088 19.0937 1.70408 18.9196ZM1.53368 20.4866L1.47688 20.7187L1.53368 20.7768V20.4866ZM1.47688 21.3571L1.36328 21.125C1.42008 21.183 1.42008 21.5312 1.47688 21.3571ZM1.53368 22.4598V22.5759C1.47688 22.5759 1.42008 22.808 1.42008 22.5178C1.36328 22.75 1.53368 22.9241 1.53368 22.4598ZM3.69208 24.491C3.57848 24.491 3.40808 24.491 3.40808 24.5491L3.80568 24.491H3.69208ZM2.95368 23.9687C3.29448 23.9687 3.23768 24.0268 3.57848 24.0268C3.46488 23.8526 3.23768 23.9687 2.95368 23.9687ZM3.74888 24.6651C3.80568 24.7232 4.08968 24.7232 4.08968 24.6651C3.97608 24.6651 3.86248 24.6651 3.74888 24.6651ZM5.45288 24.433C4.99848 24.491 4.82808 24.7232 4.60088 24.5491L4.26008 24.7812C4.60088 24.8393 4.54408 24.6071 4.77128 24.6651C4.88488 24.7232 4.77128 24.7232 4.82808 24.7812C5.11208 24.8393 5.39608 24.8393 5.50968 24.7812C5.39608 24.6071 5.33928 24.491 5.45288 24.433ZM4.31688 24.1428C4.26008 23.9687 3.97608 24.1428 3.80568 24.2009L4.03288 24.2589C4.03288 24.2009 4.20328 24.2009 4.31688 24.1428ZM7.44088 24.491L7.10008 24.5491L7.61128 24.491H7.44088ZM7.61128 24.6651L7.95208 24.6071H7.89528L7.61128 24.6651ZM8.52008 24.6071C8.63368 24.5491 8.86088 24.6071 8.97448 24.6651L8.86088 24.6071C8.74728 24.6071 8.52008 24.491 8.52008 24.6071ZM52.0857 12.7678C51.9153 12.6518 51.9153 12.7098 51.9721 12.8259C52.0289 12.8259 52.0857 12.8259 52.0857 12.7678ZM49.8137 3.308C49.8137 3.36604 49.8137 3.36604 49.8137 3.308ZM48.4505 2.61157C48.5073 2.4955 48.5073 2.43747 48.5073 2.43747C48.5073 2.43747 48.4505 2.43747 48.3937 2.4955C48.3937 2.4955 48.3937 2.55354 48.4505 2.61157ZM40.2713 14.3928C40.2713 14.5089 40.2713 14.625 40.3281 14.683C40.3281 14.683 40.3849 14.683 40.3849 14.5669L40.4985 14.683C40.4417 14.5669 40.3281 14.3348 40.2713 14.3928ZM40.3281 10.5625C40.3281 10.4464 40.3849 10.3884 40.3281 10.2723C40.2713 10.4464 40.1577 10.3303 40.1009 10.0982C39.9873 10.6785 40.3281 11.0268 40.3281 11.6071C40.3281 11.5491 40.2713 11.5491 40.2145 11.5491C40.2145 12.1875 40.2713 12.9419 40.2145 13.2321C40.1577 13.4643 40.3281 13.4643 40.3849 13.7544L40.2713 13.8705C40.3281 13.9866 40.2145 14.4509 40.3849 14.2768C40.3849 14.2768 40.3281 14.1607 40.3281 14.0446H40.3849V13.7544L40.4417 13.8705C40.5553 13.4643 40.2145 13.5803 40.2713 13.116H40.4417C40.4417 12.7678 40.3849 12.6518 40.4985 12.3616C40.4985 12.3616 40.4417 12.3616 40.4417 12.4196C40.4417 12.4776 40.3849 12.5357 40.3281 12.4776C40.2145 12.0134 40.4417 12.5357 40.4985 12.1875C40.3849 11.7812 40.3281 10.9687 40.3849 10.7946C40.3281 10.9687 40.2145 10.7366 40.1577 10.5044C40.2145 10.3884 40.2713 10.5625 40.3281 10.5625ZM40.2145 11.433C40.2145 11.491 40.2145 11.491 40.2713 11.5491C40.2713 11.491 40.2713 11.375 40.2713 11.3169L40.2145 11.433Z" fill="#4E7989"/>
<path d="M62.0256 6.03577C62.0824 6.0938 62.2528 6.15184 62.3096 6.15184C62.2528 6.15184 62.1392 6.0938 62.0256 6.03577Z" fill="#4E7989"/>
<path d="M62.48 6.32593C62.48 6.32593 62.5372 6.32593 62.5372 6.38396C62.5372 6.32593 62.5944 6.38396 62.48 6.32593Z" fill="#4E7989"/>
<path d="M62.4811 6.32593C62.4811 6.3862 62.4219 6.32593 62.4811 6.32593Z" fill="#4E7989"/>
<path d="M62.7076 6.44202H62.6504C62.6504 6.44202 62.7076 6.50005 62.7076 6.44202C62.7648 6.50005 62.7648 6.50005 62.7076 6.44202Z" fill="#4E7989"/>
<path d="M62.6514 6.38398C62.5942 6.38398 62.537 6.32595 62.6514 6.38398C62.4798 6.32595 62.4798 6.32595 62.6514 6.38398Z" fill="#4E7989"/>
<path d="M62.3104 6.15179L62.196 6.09375C62.2532 6.15179 62.3104 6.15179 62.3104 6.15179Z" fill="#4E7989"/>
<path d="M62.8208 6.44195L62.6504 6.38391L62.8208 6.44195Z" fill="#4E7989"/>
<path d="M63.5024 7.02238C63.5596 7.02238 63.6168 7.08041 63.6168 7.08041C63.6168 7.02238 63.5596 7.02238 63.5024 7.02238C63.5596 7.02238 63.5024 6.96434 63.5024 7.02238Z" fill="#4E7989"/>
<path d="M63.0486 6.55798C62.9912 6.55798 63.0486 6.61825 62.9912 6.55798C63.0486 6.55798 63.106 6.61825 63.0486 6.55798Z" fill="#4E7989"/>
<path d="M63.2757 6.73211L63.2185 6.67407L63.2757 6.73211Z" fill="#4E7989"/>
<path d="M63.6161 6.96423C63.6729 6.96423 63.6729 7.02227 63.7297 7.02227C63.6729 7.02227 63.6161 6.96423 63.6161 6.96423C63.5593 6.96423 63.5593 6.96423 63.6161 6.96423Z" fill="#4E7989"/>
<path d="M63.5596 6.96429L63.5024 6.90625C63.5596 6.90625 63.5596 6.96429 63.5596 6.96429C63.6168 6.96429 63.6168 6.96429 63.5596 6.96429Z" fill="#4E7989"/>
<path d="M64.0703 7.13844C63.4455 6.55809 62.5367 6.03577 61.2871 5.68755C61.2871 5.68755 61.3439 5.68755 61.5143 5.68755C61.4575 5.68755 61.4007 5.62952 61.4575 5.62952H61.4007C61.4007 5.57148 61.6279 5.62952 61.6279 5.57148H61.7415H61.8551V5.51345C61.9687 5.51345 61.9119 5.51345 61.8551 5.51345C61.9687 5.51345 62.0823 5.45541 62.2527 5.45541C62.3095 5.45541 62.3663 5.39737 62.4231 5.39737C62.4799 5.39737 62.5367 5.33934 62.5935 5.33934C62.7071 5.2813 62.8207 5.22327 62.9343 5.16523C63.0479 5.10719 63.1615 5.04916 63.2751 4.99112C63.3887 4.99112 63.3319 4.93309 63.3887 4.87505L63.5023 4.81702C63.5591 4.75898 63.5023 4.81702 63.5023 4.75898C63.6159 4.70094 63.6727 4.58487 63.7863 4.52684C63.8431 4.4688 63.8999 4.4688 63.8999 4.41077C63.9567 4.35273 63.9567 4.35273 64.0135 4.2947C64.0703 4.23666 64.0135 4.35273 64.0703 4.2947C64.0135 4.2947 64.0703 4.2947 64.1271 4.23666C64.1271 4.12059 64.1839 4.06255 64.1839 4.06255C64.2975 4.00452 64.4111 3.83041 64.4111 3.88844C64.4679 3.83041 64.4679 3.83041 64.4111 3.83041C64.4679 3.77237 64.4679 3.77237 64.5247 3.71434C64.5247 3.6563 64.5815 3.59827 64.5815 3.59827C64.5815 3.59827 64.6951 3.4822 64.7519 3.36612C64.8087 3.30809 64.8087 3.25005 64.8655 3.19202C64.9223 3.13398 64.9223 3.07595 64.9791 3.07595C64.9223 3.13398 64.9791 3.07594 64.9791 3.01791L64.9223 3.07595L64.9791 2.95987C64.9791 2.90184 64.9791 2.90184 64.9791 2.90184C64.9791 2.90184 64.9791 2.90184 65.0359 2.8438C65.0927 2.72773 65.0927 2.72773 65.0927 2.6697V2.61166C65.0927 2.55362 65.0359 2.78577 65.1495 2.6697V2.61166V2.55362C65.1495 2.55362 65.1495 2.49559 65.2063 2.49559C65.1495 2.55362 65.1495 2.55362 65.2063 2.61166L65.2631 2.43755H65.2063C65.2631 2.37952 65.2631 2.26345 65.3199 2.20541C65.3199 2.14737 65.3767 2.14737 65.3767 2.08934L65.4335 2.0313V1.97327C65.4903 2.08934 65.4903 2.20541 65.5471 2.26345C65.6039 2.37952 65.6039 2.43755 65.6607 2.55362L65.7175 2.6697L65.7743 2.78577C65.7743 2.8438 65.8311 2.90184 65.8879 2.95987C65.8311 2.95987 66.0015 3.19202 65.9447 3.19202C65.8879 3.13398 65.9447 3.25005 65.9447 3.30809C65.8879 3.25005 66.0583 3.42416 65.9447 3.25005C66.0015 3.30809 66.0015 3.30809 66.0583 3.36612C66.1719 3.36612 66.2855 3.71434 66.4559 3.88844C66.6263 4.06255 66.7399 4.23666 66.7399 4.2947V4.35273C66.7967 4.41077 66.8535 4.41077 66.9103 4.4688C66.9671 4.52684 66.9671 4.52684 67.0807 4.64291C67.1375 4.64291 67.1943 4.70094 67.2511 4.75898C67.3079 4.81702 67.3647 4.87505 67.4215 4.87505C67.4215 4.93309 67.4783 4.93309 67.5919 4.99112C67.7055 5.04916 67.7623 5.10719 67.7623 5.16523C67.8191 5.16523 67.9327 5.22327 68.0463 5.2813C68.1599 5.2813 68.2735 5.39737 68.3303 5.45541C68.3871 5.45541 68.3871 5.45541 68.3303 5.45541C68.3871 5.51344 68.4439 5.51345 68.5575 5.51345C68.6143 5.51345 68.6711 5.51345 68.7279 5.57148H68.7847C68.8983 5.57148 68.8983 5.57148 68.8983 5.57148C68.8983 5.57148 68.8983 5.57148 69.0687 5.62952C69.0119 5.62952 68.9551 5.62952 68.9551 5.62952C69.0119 5.62952 69.0119 5.68755 69.0687 5.68755C69.1255 5.68755 69.1255 5.74559 69.1255 5.74559C69.1255 5.74559 69.1255 5.80362 69.1823 5.80362C69.2391 5.80362 69.2391 5.86166 69.2391 5.86166H69.2959C69.3527 5.86166 69.3527 5.86166 69.4095 5.86166C69.3527 5.86166 69.3527 5.86166 69.3527 5.91969C69.3527 5.91969 69.3527 5.9197 69.2391 5.97773C69.2391 5.97773 69.1823 5.97773 69.1823 6.03577C69.1255 6.03577 69.0687 6.03577 69.0687 6.0938H69.1255C69.0687 6.0938 69.0119 6.15184 68.9551 6.15184C68.8983 6.15184 68.8983 6.15184 68.7847 6.20987L68.7279 6.26791C68.7279 6.32595 68.5007 6.38398 68.4439 6.38398C68.5007 6.32595 68.5007 6.32594 68.4439 6.32594C68.3871 6.38398 68.3871 6.38398 68.2735 6.38398C68.2735 6.44202 68.2735 6.44202 68.1599 6.55809L68.2167 6.50005C68.2167 6.50005 68.1599 6.50005 68.1599 6.55809C68.1599 6.55809 68.1599 6.55809 68.1599 6.50005C68.1031 6.55809 67.9895 6.61612 67.8759 6.67416C67.8759 6.7322 67.7055 6.73219 67.7623 6.79023C67.6487 6.84827 67.4783 6.96434 67.3647 7.08041C67.3079 7.13844 67.2511 7.19648 67.1943 7.19648C67.1375 7.25452 67.0807 7.25452 67.0807 7.25452C67.0239 7.25452 67.0239 7.31255 66.9671 7.37059C66.9103 7.48666 66.9103 7.48666 66.7967 7.60273C66.8535 7.5447 66.7967 7.5447 66.7399 7.60273L66.6831 7.7188H66.6263C66.6263 7.77684 66.5695 7.77684 66.5127 7.83487C66.5127 7.83487 66.5127 7.89291 66.4559 7.95094C66.3991 8.00898 66.3991 8.06702 66.3991 8.06702C66.3423 8.06702 66.3423 8.18309 66.2855 8.18309V8.24112H66.2287C66.2287 8.29916 66.1719 8.29916 66.1719 8.3572C66.1719 8.3572 66.1719 8.35719 66.2287 8.29916C66.2287 8.29916 66.2287 8.3572 66.1719 8.3572C66.1719 8.3572 66.1151 8.41523 66.1151 8.47327C66.0583 8.5313 66.0583 8.64737 66.0015 8.70541C65.9447 8.82148 65.9447 8.87952 65.8879 8.93755C65.8879 8.93755 65.9447 8.87952 65.8879 8.87952C65.8311 8.99559 65.7743 9.1697 65.7743 9.28577C65.7743 9.40184 65.7175 9.45987 65.7175 9.57595C65.7175 9.63398 65.6607 9.80809 65.6607 9.92416H65.3199C65.3199 9.86612 65.3199 9.80809 65.3199 9.80809C65.3199 9.80809 65.3199 9.75005 65.3199 9.69202C65.3199 9.63398 65.3199 9.57595 65.3199 9.57595C65.3199 9.45987 65.2631 9.40184 65.2631 9.3438C65.2631 9.1697 65.1495 8.99559 65.0927 8.82148C65.0927 8.76344 65.0359 8.70541 64.9791 8.64737C65.0359 8.70541 64.9791 8.64737 64.9223 8.58934C64.8655 8.5313 64.8655 8.47327 64.8087 8.41523L64.7519 8.12505C64.8087 8.24112 64.7519 8.12505 64.8087 8.06702L64.7519 8.00898C64.8087 8.00898 64.7519 7.95094 64.7519 8.00898C64.6951 7.95094 64.6383 7.83487 64.5815 7.83487C64.5815 7.83487 64.5815 7.83487 64.5815 7.89291C64.5247 7.83487 64.5247 7.83487 64.5247 7.83487C64.4679 7.7188 64.4111 7.7188 64.4111 7.60273C64.4111 7.66077 64.4111 7.60273 64.3543 7.5447C64.2975 7.48666 64.2407 7.42862 64.2975 7.48666C64.2975 7.42862 64.2407 7.42862 64.2407 7.37059C64.2975 7.42862 64.2975 7.42862 64.3543 7.48666C64.4111 7.5447 64.4111 7.5447 64.4679 7.60273L64.4111 7.5447C64.4679 7.5447 64.5247 7.7188 64.5815 7.7188C64.5815 7.7188 64.5247 7.66077 64.5247 7.60273V7.66077C64.5815 7.77684 64.6951 7.83487 64.7519 7.89291C64.6951 7.83487 64.8087 7.95095 64.8087 7.89291L64.7519 7.83487C64.6951 7.7188 64.6383 7.66077 64.5247 7.5447C64.4679 7.48666 64.4111 7.37059 64.2975 7.31255C64.2975 7.31255 64.1271 7.25452 64.1839 7.25452C64.1271 7.25452 64.1271 7.25452 64.0703 7.13844C64.0135 7.13844 64.0135 7.19648 64.0703 7.19648C64.0703 7.25452 64.1271 7.25452 64.1271 7.25452C64.0703 7.19648 64.0703 7.19648 64.0703 7.19648C64.0135 7.13845 64.0135 7.08041 64.0703 7.13844Z" fill="#4E7989"/>
<path d="M64.1847 7.2545C64.1275 7.19646 64.1275 7.19646 64.0703 7.13843C64.1275 7.19646 64.1847 7.19646 64.1847 7.2545Z" fill="#4E7989"/>
<path d="M64.8655 8.24109C64.9242 8.29912 64.8655 8.29912 64.8655 8.24109Z" fill="#4E7989"/>
<path d="M65.32 8.9375C65.2632 8.76339 65.2064 8.58929 65.0928 8.41518V8.47321C65.0928 8.41518 65.036 8.35714 65.036 8.35714L65.0928 8.47321C65.036 8.41518 65.036 8.35714 64.9792 8.24107C64.9792 8.24107 64.9224 8.18304 64.9224 8.29911C64.9792 8.41518 64.9792 8.41518 65.036 8.47321L65.0928 8.53125C65.0928 8.58929 65.1496 8.58929 65.1496 8.64732C65.1496 8.64732 65.0928 8.58929 65.1496 8.70536C65.2064 8.76339 65.2064 8.82143 65.32 8.9375Z" fill="#4E7989"/>
<path d="M65.604 9.16961L65.5472 9.11157C65.5472 9.16961 65.5472 9.22764 65.4904 9.22764C65.4904 9.28568 65.4904 9.34372 65.4336 9.34372C65.5472 9.34372 65.604 9.16961 65.604 9.16961Z" fill="#4E7989"/>
<path d="M65.8885 8.29907C65.8313 8.35711 65.8313 8.41514 65.8313 8.47318C65.8313 8.53122 65.8313 8.58925 65.8313 8.64729C65.8313 8.58925 65.8313 8.58925 65.8313 8.53121C65.8313 8.41514 65.8885 8.35711 65.8885 8.29907Z" fill="#4E7989"/>
<path d="M66.5699 7.31248C66.5699 7.25445 66.5699 7.25445 66.6271 7.19641C66.5699 7.25445 66.5127 7.25445 66.5699 7.31248Z" fill="#4E7989"/>
<path d="M68.2736 6.03577H68.2168C68.2168 6.03577 68.2168 6.03577 68.16 6.03577C68.16 6.03577 68.16 6.03577 68.1032 6.03577C68.1032 6.03577 68.0464 6.03577 68.0464 6.0938C68.0464 6.0938 68.0464 6.0938 68.1032 6.0938V6.15184C68.2168 6.0938 68.2168 6.03577 68.2736 6.03577Z" fill="#4E7989"/>
<path d="M65.0368 2.78577C65.0368 2.8438 64.9781 2.8438 65.0368 2.78577Z" fill="#4E7989"/>
<path d="M63.8999 7.19641C63.8999 7.19641 63.8999 7.25445 63.9571 7.25445C64.0143 7.25445 64.0143 7.31248 64.0143 7.31248C64.0143 7.31248 63.9571 7.25445 63.8999 7.19641Z" fill="#4E7989"/>
<path d="M63.8431 7.08037C63.7863 7.02234 63.7863 7.02234 63.7295 7.02234C63.8431 7.13841 63.6727 7.02234 63.7863 7.08037L63.8999 7.19645C63.8999 7.19645 63.8431 7.13841 63.7863 7.08037C63.7863 7.08037 63.8999 7.13841 63.8431 7.08037Z" fill="#4E7989"/>
<path d="M63.2194 6.67412C63.2194 6.67412 63.2194 6.61609 63.1622 6.61609C63.1622 6.61609 63.1622 6.61609 63.105 6.61609C63.1622 6.61609 63.2194 6.67412 63.2194 6.67412Z" fill="#4E7989"/>
<path d="M63.5592 6.84818C63.5024 6.79015 63.5024 6.84818 63.5024 6.84818H63.5592Z" fill="#4E7989"/>
<path d="M66.1724 8.125C66.1152 8.18304 66.1152 8.18304 66.1152 8.24107C66.1152 8.18304 66.1724 8.125 66.1724 8.125Z" fill="#4E7989"/>
<path d="M65.2069 9.11155C65.2069 9.05352 65.2069 8.99548 65.1497 8.99548C65.1497 9.05352 65.2069 9.05352 65.2069 9.11155Z" fill="#4E7989"/>
<path d="M67.9899 5.22321C67.9327 5.16518 67.9327 5.16518 67.9899 5.22321Z" fill="#4E7989"/>
<path d="M65.2069 9.22764C65.2069 9.16961 65.2069 9.11157 65.1497 9.11157C65.2069 9.16961 65.2069 9.16961 65.2069 9.22764Z" fill="#4E7989"/>
<path d="M64.4111 7.71875L64.4683 7.77679C64.4111 7.77679 64.4111 7.71875 64.4111 7.71875Z" fill="#4E7989"/>
<path d="M64.4117 7.60264C64.4117 7.60264 64.3545 7.54461 64.3545 7.48657C64.2973 7.54461 64.3545 7.60264 64.4117 7.60264Z" fill="#4E7989"/>
<path d="M64.6954 8.06702C64.8098 8.24112 64.6382 8.06702 64.6954 8.06702Z" fill="#4E7989"/>
<path d="M64.4111 7.54468L64.4683 7.60271L64.4111 7.54468Z" fill="#4E7989"/>
<path d="M65.2063 8.76343C65.2063 8.82146 65.2635 8.82146 65.2635 8.8795C65.2635 8.8795 65.2635 8.82146 65.2063 8.76343Z" fill="#4E7989"/>
<path d="M61.4581 5.62945L61.4009 5.57141L61.4581 5.62945Z" fill="#4E7989"/>
</g>
<defs>
<clipPath id="clip0_42_13">
<rect width="284" height="26" fill="white"/>
</clipPath>
</defs>
</svg>
